<svg width="629" height="233" viewBox="0 0 629 233" fill="none" xmlns="http://www.w3.org/2000/svg">
<path d="M428.049 196.179H217.817C217.559 196.179 217.303 196.127 217.064 196.027C216.825 195.928 216.609 195.781 216.427 195.597C216.245 195.413 216.101 195.195 216.003 194.954C215.906 194.714 215.857 194.457 215.859 194.198V67.6608C215.859 64.4629 217.126 61.396 219.38 59.1348C221.635 56.8735 224.693 55.6031 227.881 55.6031H418.002C421.191 55.6031 424.248 56.8735 426.503 59.1348C428.758 61.396 430.024 64.4629 430.024 67.6608V194.284C430.006 194.795 429.79 195.28 429.421 195.634C429.052 195.988 428.56 196.183 428.049 196.179Z" fill="#F2F2F2"/>
<path d="M377.47 39.9282C377.824 38.5241 378.584 37.2566 379.655 36.286C380.727 35.3154 382.061 34.6853 383.49 34.4753C384.918 34.2653 386.376 34.4849 387.68 35.1063C388.985 35.7278 390.075 36.7231 390.815 37.9665C391.555 39.2098 391.911 40.6454 391.838 42.0915C391.764 43.5377 391.265 44.9294 390.402 46.0908C389.54 47.2522 388.354 48.1311 386.993 48.6163C385.633 49.1014 384.16 49.171 382.76 48.8164C381.83 48.583 380.955 48.1677 380.185 47.5942C379.415 47.0207 378.766 46.3003 378.274 45.4745C377.783 44.6486 377.459 43.7335 377.321 42.7817C377.183 41.8299 377.234 40.8602 377.47 39.9282Z" fill="#E6E6E6"/>
<path d="M342.95 36.9482V46.4393C342.949 46.5745 342.99 46.7067 343.067 46.8177C343.143 46.9287 343.253 47.0132 343.379 47.0594L350.85 49.6432C351.702 53.2972 353.14 56.7878 355.109 59.9784L351.675 67.0924C351.617 67.2133 351.597 67.3492 351.618 67.4817C351.64 67.6142 351.701 67.7369 351.795 67.8331L358.493 74.5682C358.589 74.6618 358.711 74.7236 358.843 74.7451C358.975 74.7667 359.111 74.747 359.231 74.6887L366.342 71.2437C369.523 73.2219 373.003 74.6703 376.646 75.5328L379.222 83.0086C379.263 83.1402 379.346 83.2551 379.457 83.3358C379.569 83.4166 379.703 83.4589 379.841 83.4564H389.304C389.439 83.4574 389.57 83.4166 389.681 83.3395C389.792 83.2624 389.876 83.1528 389.922 83.0258L392.498 75.55C396.14 74.6827 399.619 73.2345 402.803 71.2609L409.896 74.706C410.016 74.7642 410.152 74.7839 410.284 74.7624C410.416 74.7408 410.538 74.679 410.634 74.5854L417.35 67.8675C417.443 67.7713 417.505 67.6487 417.526 67.5162C417.548 67.3837 417.528 67.2478 417.47 67.1269L414.035 59.9956C416.007 56.8046 417.451 53.3144 418.311 49.6604L425.765 47.0766C425.895 47.039 426.009 46.9596 426.09 46.8507C426.17 46.7418 426.213 46.6094 426.212 46.4738V36.9999C426.21 36.8652 426.169 36.7342 426.092 36.6236C426.015 36.513 425.908 36.4281 425.782 36.3797L418.311 33.796C417.46 30.142 416.021 26.6513 414.052 23.4608L417.487 16.3468C417.545 16.2258 417.565 16.0899 417.543 15.9574C417.522 15.8249 417.46 15.7023 417.367 15.6061L410.669 8.88823C410.576 8.78952 410.455 8.72295 410.322 8.69817C410.189 8.67339 410.052 8.6917 409.93 8.75044L402.82 12.1955C399.638 10.2173 396.159 8.76886 392.515 7.90639L389.922 0.482304C389.88 0.354802 389.799 0.243434 389.692 0.163312C389.584 0.0831902 389.455 0.0381927 389.321 0.0344432H379.841C379.706 0.0334029 379.574 0.074246 379.463 0.151353C379.353 0.22846 379.269 0.338048 379.222 0.465075L376.646 7.95806C373.003 8.81197 369.523 10.2548 366.342 12.2299L359.249 8.78488C359.128 8.7266 358.992 8.70692 358.86 8.72849C358.728 8.75006 358.606 8.81183 358.51 8.90546L351.881 15.5544C351.787 15.6506 351.726 15.7733 351.704 15.9058C351.683 16.0382 351.702 16.1742 351.76 16.2951L355.195 23.4264C353.223 26.6173 351.779 30.1075 350.919 33.7615L343.465 36.3453C343.325 36.3753 343.199 36.4505 343.106 36.5594C343.013 36.6684 342.958 36.805 342.95 36.9482ZM367.87 24.8905C371.149 21.6119 375.323 19.3814 379.866 18.4807C384.408 17.5801 389.114 18.0496 393.391 19.8301C397.667 21.6105 401.321 24.6221 403.892 28.4843C406.463 32.3465 407.835 36.8863 407.835 41.5301C407.835 42.3397 407.835 43.1321 407.715 43.9072C407.363 47.3308 406.267 50.6353 404.503 53.5878C404.468 53.6519 404.42 53.7081 404.362 53.7527C404.304 53.7974 404.237 53.8296 404.166 53.8474C404.095 53.8651 404.022 53.8681 403.95 53.856C403.878 53.844 403.809 53.8172 403.747 53.7773C403.657 53.7229 403.583 53.6441 403.534 53.5497C403.485 53.4553 403.464 53.3492 403.473 53.2433C403.459 53.1693 403.459 53.0933 403.473 53.0194C405.152 50.2102 406.19 47.0631 406.513 43.8038C406.595 43.0488 406.636 42.2897 406.633 41.5301C406.633 35.5912 404.28 29.8954 400.093 25.696C395.906 21.4965 390.227 19.1373 384.306 19.1373C378.793 19.1597 373.483 21.2274 369.399 24.9419C365.314 28.6565 362.745 33.7553 362.185 39.2564C362.102 40.0171 362.062 40.782 362.065 41.5473C362.065 47.4863 364.417 53.182 368.604 57.3815C372.792 61.5809 378.47 63.9402 384.392 63.9402C385.979 63.9377 387.562 63.7703 389.115 63.4407C389.186 63.4256 389.259 63.4248 389.331 63.4383C389.402 63.4518 389.47 63.4794 389.531 63.5194C389.591 63.5595 389.644 63.6112 389.684 63.6716C389.725 63.732 389.753 63.7998 389.767 63.8713C389.788 63.9428 389.793 64.0179 389.781 64.0914C389.77 64.165 389.743 64.2352 389.703 64.2974C389.662 64.3595 389.608 64.4121 389.545 64.4515C389.482 64.491 389.412 64.5163 389.338 64.5258H389.063H388.874C387.646 64.7674 386.399 64.9057 385.148 64.9392H384.375C383.577 64.9367 382.78 64.8907 381.987 64.8014C376.222 64.2044 370.883 61.4836 367.003 57.1656C363.123 52.8477 360.978 47.2396 360.983 41.4268C360.983 40.6172 360.983 39.8076 361.103 39.0152C361.684 33.685 364.073 28.7167 367.87 24.9422V24.8905ZM383.585 51.1763C383.123 51.121 382.664 51.0405 382.211 50.9351C379.767 50.306 377.671 48.7306 376.383 46.5543C375.096 44.378 374.721 41.7783 375.341 39.3253C375.648 38.111 376.19 36.9693 376.937 35.9655C377.684 34.9618 378.622 34.1157 379.695 33.4757C380.769 32.8357 381.958 32.4143 383.194 32.2358C384.43 32.0573 385.689 32.125 386.899 32.4352C389.251 33.0064 391.297 34.4547 392.622 36.4854C393.947 38.5162 394.45 40.9769 394.03 43.3668C393.61 45.7567 392.298 47.8963 390.36 49.3503C388.423 50.8042 386.006 51.4633 383.602 51.1935L383.585 51.1763Z" fill="#E6E6E6"/>
<path d="M419.496 77.996V84.3521C419.495 84.4431 419.523 84.5322 419.575 84.6064C419.628 84.6807 419.702 84.7364 419.788 84.7655L424.786 86.4881C425.357 88.9248 426.32 91.252 427.637 93.3782L425.318 98.1495C425.278 98.2312 425.265 98.3236 425.28 98.4133C425.296 98.5031 425.339 98.5856 425.404 98.6491L429.887 103.145C429.962 103.19 430.048 103.215 430.136 103.215C430.224 103.215 430.31 103.19 430.385 103.145L435.125 100.819C437.246 102.141 439.566 103.113 441.995 103.696L443.712 108.709C443.74 108.792 443.793 108.865 443.864 108.917C443.934 108.97 444.019 108.999 444.107 109.001H450.462C450.551 108.998 450.638 108.968 450.711 108.916C450.784 108.864 450.841 108.792 450.874 108.709L452.591 103.696C455.023 103.131 457.345 102.165 459.461 100.837L464.218 103.162C464.29 103.217 464.378 103.246 464.468 103.246C464.557 103.246 464.645 103.217 464.717 103.162L469.199 98.6663C469.265 98.6072 469.31 98.5275 469.325 98.4401C469.341 98.3526 469.327 98.2624 469.285 98.184L466.949 93.4987C468.272 91.3734 469.24 89.0462 469.817 86.6086L474.815 84.8861C474.9 84.8548 474.973 84.7986 475.025 84.7248C475.077 84.651 475.106 84.5631 475.107 84.4727V77.996C475.108 77.905 475.081 77.8159 475.028 77.7417C474.976 77.6674 474.901 77.6117 474.815 77.5826L469.817 75.8601C469.254 73.4209 468.29 71.0926 466.966 68.97L469.285 64.1986C469.325 64.1169 469.338 64.0245 469.323 63.9348C469.308 63.845 469.264 63.7625 469.199 63.699L464.734 59.2032C464.659 59.1576 464.572 59.1335 464.485 59.1335C464.397 59.1335 464.311 59.1576 464.236 59.2032L459.478 61.5286C457.359 60.2022 455.039 59.2306 452.609 58.652L450.891 53.6567C450.862 53.5705 450.807 53.4957 450.733 53.4431C450.658 53.3904 450.57 53.3627 450.479 53.3639H444.142C444.051 53.3627 443.962 53.3904 443.888 53.4431C443.814 53.4957 443.758 53.5705 443.729 53.6567L442.012 58.6692C439.582 59.2419 437.262 60.2077 435.142 61.5286L430.402 59.0482C430.33 58.9937 430.243 58.9642 430.153 58.9642C430.063 58.9642 429.976 58.9937 429.904 59.0482L425.404 63.544C425.355 63.6178 425.328 63.7048 425.328 63.7938C425.328 63.8827 425.355 63.9697 425.404 64.0435L427.706 68.7977C426.383 70.9231 425.414 73.2502 424.838 75.6878L419.857 77.4103C419.791 77.4164 419.727 77.4379 419.67 77.4731C419.614 77.5082 419.566 77.5561 419.531 77.6129C419.496 77.6697 419.475 77.7339 419.469 77.8004C419.463 77.8668 419.472 77.9338 419.496 77.996ZM435.812 69.6417C438.073 67.3765 440.953 65.8346 444.088 65.2108C447.223 64.587 450.472 64.9095 453.424 66.1373C456.376 67.3652 458.899 69.4433 460.673 72.109C462.448 74.7748 463.395 77.9084 463.394 81.1138C463.394 81.665 463.394 82.2162 463.308 82.8363C463.068 85.2003 462.312 87.4822 461.093 89.5197C460.975 89.7123 460.787 89.8509 460.569 89.9057C460.35 89.9605 460.119 89.927 459.925 89.8125C459.782 89.7316 459.666 89.6096 459.593 89.4623C459.519 89.315 459.491 89.149 459.513 88.9857C459.523 88.8595 459.558 88.7366 459.616 88.624C460.712 86.8112 461.387 84.7742 461.591 82.664C461.645 82.1778 461.674 81.6891 461.677 81.1999C461.661 77.4997 460.235 73.9457 457.69 71.2669C455.145 68.5881 451.674 66.9876 447.99 66.7937C444.306 66.5998 440.687 67.8272 437.877 70.2242C435.066 72.6211 433.277 76.0058 432.875 79.6841C432.821 80.176 432.792 80.6705 432.789 81.1654C432.775 83.0831 433.141 84.9846 433.866 86.759C434.591 88.5333 435.662 90.1452 437.014 91.5006C439.732 93.9809 443.284 95.3405 446.958 95.3074H446.34V95.6002C447.492 95.6333 448.645 95.535 449.775 95.3074C450.026 95.2602 450.287 95.3011 450.512 95.4234C450.737 95.5457 450.913 95.742 451.011 95.9792C451.011 95.9792 451.149 96.1514 451.132 96.2548C451.127 96.4302 451.064 96.599 450.952 96.7335C450.839 96.8681 450.685 96.9604 450.513 96.9955H450.41C449.337 97.2216 448.244 97.3371 447.147 97.34C446.58 97.34 446.048 97.34 445.516 97.34C441.536 96.9229 437.851 95.0431 435.171 92.0629C432.492 89.0826 431.007 85.213 431.003 81.1999C431.003 80.6487 431.003 80.0975 431.089 79.4774C431.47 75.7412 433.14 72.2561 435.812 69.6245V69.6417ZM450.651 86.867C449.453 87.5713 448.065 87.8787 446.683 87.7455C446.364 87.7147 446.048 87.6571 445.739 87.5732C444.069 87.1506 442.636 86.0802 441.753 84.5975C440.871 83.1148 440.612 81.3412 441.033 79.6668C441.211 78.8059 441.561 77.9901 442.062 77.2686C442.563 76.5471 443.205 75.9348 443.948 75.4687C444.692 75.0027 445.522 74.6924 446.388 74.5568C447.254 74.4211 448.139 74.4628 448.988 74.6793C449.838 74.8959 450.635 75.2828 451.332 75.8167C452.028 76.3506 452.61 77.0205 453.041 77.786C453.472 78.5515 453.745 79.3966 453.842 80.2705C453.939 81.1444 453.858 82.0289 453.605 82.8707C453.171 84.513 452.11 85.9178 450.651 86.7809V86.867Z" fill="#E6E6E6"/>
<path d="M443.231 83.6286C442.777 82.8689 442.542 81.9972 442.554 81.1114C442.566 80.2255 442.823 79.3604 443.297 78.613C443.772 77.8656 444.444 77.2654 445.239 76.8795C446.034 76.4937 446.921 76.3375 447.8 76.4285C448.032 76.442 448.263 76.4824 448.487 76.5491C449.406 76.7755 450.237 77.2719 450.874 77.9749C451.51 78.6779 451.923 79.5554 452.06 80.4951C452.196 81.4348 452.05 82.3939 451.64 83.2498C451.23 84.1057 450.574 84.8194 449.757 85.2995C448.664 85.9384 447.363 86.1158 446.139 85.7928C444.915 85.4698 443.869 84.6729 443.231 83.577V83.6286Z" fill="#E6E6E6"/>
<path d="M217.817 202.018C215.673 202.054 213.597 201.262 212.018 199.807C210.439 198.352 209.478 196.344 209.333 194.198V67.6609C209.333 57.7391 217.92 50.4356 227.881 50.4356H418.002C427.895 50.4356 436.035 57.653 436.035 67.6609V194.284C436.004 196.381 435.146 198.38 433.65 199.845C432.154 201.311 430.14 202.123 428.049 202.104L217.817 202.018Z" fill="white"/>
<path d="M196.83 44.9924H159.373C158.917 44.9924 158.48 44.8109 158.158 44.4879C157.836 44.1648 157.655 43.7267 157.655 43.2699V22.6857C157.655 22.2288 157.836 21.7907 158.158 21.4677C158.48 21.1446 158.917 20.9632 159.373 20.9632H196.83C197.063 20.9515 197.295 20.9874 197.514 21.0687C197.732 21.15 197.932 21.275 198.1 21.4362C198.269 21.5973 198.403 21.7912 198.495 22.006C198.587 22.2208 198.634 22.452 198.633 22.6857V43.1837C198.646 43.4245 198.608 43.6652 198.521 43.8903C198.435 44.1153 198.303 44.3197 198.133 44.4901C197.963 44.6606 197.759 44.7934 197.535 44.8799C197.31 44.9665 197.07 45.0048 196.83 44.9924ZM159.373 21.6522C159.099 21.6522 158.837 21.7611 158.644 21.9549C158.451 22.1487 158.342 22.4116 158.342 22.6857V43.1837C158.342 43.4578 158.451 43.7207 158.644 43.9145C158.837 44.1084 159.099 44.2173 159.373 44.2173H196.83C197.103 44.2173 197.366 44.1084 197.559 43.9145C197.752 43.7207 197.861 43.4578 197.861 43.1837V22.6857C197.861 22.4116 197.752 22.1487 197.559 21.9549C197.366 21.7611 197.103 21.6522 196.83 21.6522H159.373Z" fill="#E6E6E6"/>
<path d="M198.256 29.3691H157.947C157.847 29.3691 157.751 29.3292 157.68 29.2581C157.609 29.1871 157.569 29.0907 157.569 28.9902V25.8552C157.567 25.804 157.575 25.7528 157.593 25.7049C157.611 25.6569 157.639 25.613 157.674 25.576C157.709 25.539 157.752 25.5095 157.799 25.4894C157.846 25.4693 157.896 25.4589 157.947 25.459H198.256C198.307 25.4589 198.357 25.4693 198.404 25.4894C198.451 25.5095 198.494 25.539 198.529 25.576C198.564 25.613 198.592 25.6569 198.61 25.7049C198.628 25.7528 198.636 25.804 198.634 25.8552V28.9902C198.634 29.0907 198.594 29.1871 198.523 29.2581C198.452 29.3292 198.356 29.3691 198.256 29.3691ZM158.342 28.594H197.844V26.3202H158.342V28.594Z" fill="#E6E6E6"/>
<path d="M187.436 39.8249C186.961 39.8338 186.491 39.7243 186.069 39.5062C185.646 39.288 185.285 38.9681 185.016 38.5752C184.748 38.1822 184.58 37.7285 184.53 37.2547C184.479 36.781 184.547 36.3021 184.727 35.861C184.906 35.42 185.192 35.0306 185.559 34.7278C185.926 34.425 186.362 34.2183 186.828 34.1263C187.294 34.0343 187.776 34.0598 188.229 34.2006C188.683 34.3414 189.095 34.593 189.428 34.9329C189.465 34.9676 189.494 35.0106 189.512 35.0584C189.53 35.1063 189.536 35.1577 189.531 35.2085C189.533 35.2606 189.523 35.3124 189.502 35.3602C189.482 35.4079 189.45 35.4503 189.411 35.4841C189.009 35.8862 188.781 36.4306 188.775 36.9999C188.771 37.2845 188.827 37.5667 188.94 37.828C189.052 38.0892 189.219 38.3236 189.428 38.5158C189.495 38.5986 189.531 38.702 189.531 38.8086C189.533 38.9103 189.496 39.009 189.428 39.0842C188.882 39.5763 188.169 39.8411 187.436 39.8249ZM187.436 34.8468C186.88 34.8468 186.347 35.0682 185.954 35.4623C185.561 35.8564 185.34 36.3909 185.34 36.9482C185.34 37.5056 185.561 38.0401 185.954 38.4342C186.347 38.8283 186.88 39.0497 187.436 39.0497C187.845 39.052 188.245 38.9321 188.586 38.7052C188.211 38.2095 188.006 37.6051 188.002 36.9827C188.002 36.3597 188.208 35.7541 188.586 35.2602C188.247 35.0323 187.844 34.9178 187.436 34.9329V34.8468Z" fill="#E6E6E6"/>
<path d="M190.871 39.8248C190.303 39.8248 189.749 39.6561 189.277 39.34C188.805 39.024 188.438 38.5747 188.221 38.049C188.004 37.5234 187.947 36.945 188.058 36.387C188.168 35.829 188.441 35.3164 188.843 34.9141C189.244 34.5118 189.755 34.2379 190.311 34.1269C190.867 34.0159 191.444 34.0728 191.968 34.2906C192.492 34.5083 192.94 34.877 193.255 35.35C193.57 35.8231 193.739 36.3793 193.739 36.9482C193.739 37.7111 193.437 38.4428 192.899 38.9823C192.361 39.5218 191.631 39.8248 190.871 39.8248ZM190.871 34.8467C190.456 34.8467 190.051 34.97 189.706 35.2009C189.362 35.4318 189.093 35.76 188.935 36.144C188.776 36.528 188.735 36.9505 188.816 37.3582C188.896 37.7658 189.096 38.1403 189.389 38.4342C189.682 38.7281 190.055 38.9282 190.462 39.0093C190.868 39.0904 191.29 39.0488 191.672 38.8897C192.055 38.7307 192.382 38.4613 192.613 38.1157C192.843 37.7701 192.966 37.3638 192.966 36.9482C192.944 36.4059 192.713 35.8933 192.323 35.5176C191.932 35.142 191.412 34.9324 190.871 34.9329V34.8467Z" fill="#E6E6E6"/>
<path d="M176.822 34.1061H160.077C160.026 34.1061 159.975 34.0958 159.928 34.0757C159.881 34.0556 159.839 34.0261 159.804 33.9891C159.768 33.952 159.741 33.9082 159.723 33.8602C159.705 33.8122 159.697 33.7611 159.699 33.7099C159.699 33.6094 159.739 33.513 159.81 33.4419C159.881 33.3709 159.977 33.3309 160.077 33.3309H176.822C176.88 33.3187 176.939 33.3195 176.996 33.3333C177.053 33.3471 177.107 33.3735 177.153 33.4107C177.198 33.4478 177.235 33.4947 177.26 33.548C177.286 33.6013 177.299 33.6595 177.299 33.7185C177.299 33.7775 177.286 33.8358 177.26 33.889C177.235 33.9423 177.198 33.9892 177.153 34.0263C177.107 34.0635 177.053 34.0899 176.996 34.1037C176.939 34.1175 176.88 34.1183 176.822 34.1061Z" fill="#E6E6E6"/>
<path d="M176.822 38.8085H160.077C159.975 38.8041 159.879 38.7604 159.809 38.6866C159.738 38.6128 159.699 38.5145 159.699 38.4123C159.697 38.3612 159.705 38.31 159.723 38.262C159.741 38.2141 159.768 38.1702 159.804 38.1332C159.839 38.0962 159.881 38.0667 159.928 38.0466C159.975 38.0265 160.026 38.0161 160.077 38.0162H176.822C176.927 38.0162 177.027 38.0579 177.101 38.1322C177.175 38.2065 177.217 38.3073 177.217 38.4123C177.217 38.5174 177.175 38.6182 177.101 38.6925C177.027 38.7668 176.927 38.8085 176.822 38.8085Z" fill="#E6E6E6"/>
<path d="M162.79 23.9432H160.678C160.578 23.9432 160.482 23.9033 160.411 23.8322C160.34 23.7611 160.3 23.6647 160.3 23.5642C160.298 23.513 160.306 23.4619 160.324 23.4139C160.342 23.3659 160.369 23.3221 160.405 23.285C160.44 23.248 160.482 23.2186 160.529 23.1984C160.576 23.1783 160.627 23.168 160.678 23.168H162.79C162.848 23.1558 162.908 23.1566 162.965 23.1704C163.022 23.1842 163.075 23.2106 163.121 23.2478C163.167 23.2849 163.204 23.3318 163.229 23.3851C163.254 23.4384 163.267 23.4966 163.267 23.5556C163.267 23.6146 163.254 23.6729 163.229 23.7261C163.204 23.7794 163.167 23.8263 163.121 23.8634C163.075 23.9006 163.022 23.927 162.965 23.9408C162.908 23.9546 162.848 23.9554 162.79 23.9432Z" fill="#E6E6E6"/>
<path d="M167.153 23.9432H165.04C164.983 23.9554 164.923 23.9546 164.866 23.9408C164.809 23.927 164.755 23.9006 164.71 23.8634C164.664 23.8263 164.627 23.7794 164.602 23.7261C164.576 23.6729 164.563 23.6146 164.563 23.5556C164.563 23.4966 164.576 23.4384 164.602 23.3851C164.627 23.3318 164.664 23.2849 164.71 23.2478C164.755 23.2106 164.809 23.1842 164.866 23.1704C164.923 23.1566 164.983 23.1558 165.04 23.168H167.153C167.204 23.168 167.254 23.1783 167.301 23.1984C167.348 23.2186 167.391 23.248 167.426 23.285C167.461 23.3221 167.489 23.3659 167.507 23.4139C167.525 23.4619 167.533 23.513 167.53 23.5642C167.53 23.6647 167.491 23.7611 167.42 23.8322C167.349 23.9033 167.253 23.9432 167.153 23.9432Z" fill="#E6E6E6"/>
<path d="M171.549 23.9432H169.437C169.337 23.9432 169.241 23.9033 169.17 23.8322C169.099 23.7611 169.059 23.6647 169.059 23.5642C169.057 23.513 169.065 23.4619 169.083 23.4139C169.101 23.3659 169.128 23.3221 169.163 23.285C169.199 23.248 169.241 23.2186 169.288 23.1984C169.335 23.1783 169.386 23.168 169.437 23.168H171.549C171.607 23.1558 171.666 23.1566 171.724 23.1704C171.781 23.1842 171.834 23.2106 171.88 23.2478C171.926 23.2849 171.962 23.3318 171.988 23.3851C172.013 23.4384 172.026 23.4966 172.026 23.5556C172.026 23.6146 172.013 23.6729 171.988 23.7261C171.962 23.7794 171.926 23.8263 171.88 23.8634C171.834 23.9006 171.781 23.927 171.724 23.9408C171.666 23.9546 171.607 23.9554 171.549 23.9432Z" fill="#E6E6E6"/>
<path d="M157.947 38.9808H153.276C153.043 38.9925 152.811 38.9566 152.592 38.8753C152.374 38.7939 152.174 38.6689 152.005 38.5078C151.837 38.3466 151.703 38.1528 151.611 37.938C151.519 37.7232 151.472 37.4919 151.472 37.2583V16.6741C151.46 16.4333 151.498 16.1926 151.585 15.9676C151.671 15.7425 151.803 15.5382 151.973 15.3677C152.143 15.1972 152.347 15.0644 152.571 14.9779C152.796 14.8914 153.036 14.8531 153.276 14.8654H190.733C190.973 14.8531 191.213 14.8914 191.438 14.9779C191.662 15.0644 191.866 15.1972 192.036 15.3677C192.206 15.5382 192.338 15.7425 192.424 15.9676C192.511 16.1926 192.549 16.4333 192.537 16.6741V21.256C192.537 21.308 192.526 21.3596 192.506 21.4076C192.487 21.4557 192.458 21.4994 192.421 21.5361C192.384 21.5729 192.341 21.6021 192.293 21.622C192.245 21.6419 192.193 21.6522 192.142 21.6522H159.373C159.099 21.6522 158.837 21.7611 158.644 21.9549C158.451 22.1487 158.342 22.4116 158.342 22.6857V38.5846C158.342 38.6897 158.301 38.7905 158.227 38.8648C158.152 38.9391 158.052 38.9808 157.947 38.9808ZM153.276 15.6406C153.003 15.6406 152.74 15.7495 152.547 15.9433C152.354 16.1371 152.245 16.4 152.245 16.6741V37.1722C152.245 37.4463 152.354 37.7091 152.547 37.903C152.74 38.0968 153.003 38.2057 153.276 38.2057H157.569V22.7029C157.569 22.2461 157.75 21.808 158.072 21.4849C158.395 21.1619 158.831 20.9804 159.287 20.9804H191.678V16.6741C191.678 16.4 191.569 16.1371 191.376 15.9433C191.183 15.7495 190.921 15.6406 190.647 15.6406H153.276Z" fill="#E6E6E6"/>
<path d="M3.80669 114.479C3.07445 114.479 2.3586 114.262 1.74931 113.854C1.14003 113.447 0.664554 112.868 0.382796 112.19C0.101038 111.512 0.0256032 110.766 0.16598 110.045C0.306357 109.324 0.656275 108.661 1.17165 108.14C1.68703 107.618 2.3448 107.261 3.06213 107.114C3.77946 106.966 4.52425 107.035 5.20267 107.311C5.8811 107.588 6.46282 108.059 6.87454 108.666C7.28627 109.274 7.50958 109.99 7.51636 110.724C7.52089 111.216 7.42829 111.703 7.24389 112.158C7.0595 112.614 6.78697 113.028 6.44204 113.377C6.09711 113.726 5.68662 114.004 5.23429 114.193C4.78196 114.382 4.29675 114.479 3.80669 114.479ZM3.80669 108.399C3.33988 108.399 2.88363 108.538 2.49599 108.799C2.10835 109.06 1.80683 109.43 1.6298 109.864C1.45277 110.297 1.40822 110.773 1.50182 111.232C1.59543 111.69 1.82296 112.111 2.15547 112.439C2.48797 112.768 2.91041 112.99 3.36907 113.077C3.82773 113.164 4.30187 113.113 4.73116 112.929C5.16045 112.745 5.52549 112.437 5.77985 112.044C6.03421 111.652 6.16639 111.192 6.15957 110.724C6.15055 110.104 5.89868 109.513 5.4584 109.078C5.01813 108.642 4.42481 108.399 3.80669 108.399Z" fill="#E6E6E6"/>
<path d="M156.487 164.501C155.754 164.501 155.036 164.283 154.426 163.874C153.816 163.465 153.341 162.884 153.06 162.204C152.779 161.525 152.706 160.777 152.849 160.055C152.992 159.333 153.345 158.67 153.864 158.15C154.383 157.629 155.044 157.275 155.764 157.131C156.483 156.988 157.229 157.062 157.907 157.343C158.585 157.625 159.164 158.102 159.572 158.714C159.979 159.325 160.197 160.045 160.197 160.781C160.197 161.767 159.806 162.714 159.11 163.412C158.415 164.109 157.471 164.501 156.487 164.501ZM156.487 158.421C156.022 158.421 155.567 158.559 155.18 158.819C154.793 159.078 154.492 159.446 154.313 159.878C154.135 160.309 154.089 160.783 154.18 161.241C154.27 161.699 154.494 162.119 154.824 162.449C155.153 162.779 155.572 163.004 156.028 163.095C156.485 163.186 156.958 163.14 157.388 162.961C157.818 162.782 158.185 162.48 158.444 162.092C158.702 161.704 158.84 161.247 158.84 160.781C158.84 160.155 158.592 159.555 158.151 159.112C157.71 158.669 157.111 158.421 156.487 158.421Z" fill="#E6E6E6"/>
<path d="M116.385 202.018C116.296 202.018 116.207 202 116.125 201.965C116.042 201.93 115.968 201.879 115.905 201.815C115.843 201.751 115.794 201.675 115.761 201.591C115.729 201.508 115.713 201.419 115.715 201.329V191.924C115.713 191.834 115.729 191.745 115.761 191.662C115.794 191.578 115.843 191.502 115.905 191.438C115.968 191.374 116.042 191.322 116.125 191.288C116.207 191.253 116.296 191.235 116.385 191.235C116.567 191.235 116.742 191.308 116.871 191.437C117 191.566 117.072 191.741 117.072 191.924V201.329C117.072 201.512 117 201.687 116.871 201.816C116.742 201.945 116.567 202.018 116.385 202.018Z" fill="#E6E6E6"/>
<path d="M121.074 197.298H111.696C111.514 197.298 111.34 197.226 111.211 197.096C111.082 196.967 111.01 196.792 111.01 196.609C111.009 196.52 111.027 196.431 111.062 196.348C111.097 196.265 111.148 196.191 111.212 196.128C111.276 196.065 111.352 196.016 111.435 195.984C111.518 195.951 111.607 195.935 111.696 195.937H121.074C121.163 195.935 121.252 195.951 121.335 195.984C121.419 196.016 121.494 196.065 121.558 196.128C121.623 196.191 121.673 196.265 121.708 196.348C121.743 196.431 121.761 196.52 121.761 196.609C121.761 196.792 121.688 196.967 121.559 197.096C121.431 197.226 121.256 197.298 121.074 197.298Z" fill="#E6E6E6"/>
<path d="M95.3806 64.991C95.2912 64.9933 95.2022 64.9776 95.119 64.9449C95.0357 64.9121 94.9598 64.863 94.8958 64.8004C94.8318 64.7378 94.7809 64.6629 94.7462 64.5803C94.7114 64.4976 94.6936 64.4089 94.6936 64.3192V54.8969C94.6936 54.7142 94.766 54.539 94.8948 54.4098C95.0236 54.2805 95.1984 54.2079 95.3806 54.2079C95.5628 54.2079 95.7375 54.2805 95.8664 54.4098C95.9952 54.539 96.0676 54.7142 96.0676 54.8969V64.3192C96.0676 64.4089 96.0497 64.4976 96.015 64.5803C95.9802 64.6629 95.9294 64.7378 95.8654 64.8004C95.8013 64.863 95.7254 64.9121 95.6422 64.9449C95.5589 64.9776 95.47 64.9933 95.3806 64.991Z" fill="#E6E6E6"/>
<path d="M100.069 60.2885H90.692C90.5938 60.3042 90.4935 60.2984 90.3978 60.2714C90.3021 60.2444 90.2135 60.197 90.1379 60.1323C90.0622 60.0676 90.0015 59.9872 89.9599 59.8967C89.9183 59.8062 89.8967 59.7077 89.8967 59.6081C89.8967 59.5084 89.9183 59.4099 89.9599 59.3194C90.0015 59.2289 90.0622 59.1486 90.1379 59.0839C90.2135 59.0192 90.3021 58.9717 90.3978 58.9448C90.4935 58.9178 90.5938 58.912 90.692 58.9277H100.069C100.167 58.912 100.268 58.9178 100.363 58.9448C100.459 58.9717 100.548 59.0192 100.623 59.0839C100.699 59.1486 100.76 59.2289 100.801 59.3194C100.843 59.4099 100.864 59.5084 100.864 59.6081C100.864 59.7077 100.843 59.8062 100.801 59.8967C100.76 59.9872 100.699 60.0676 100.623 60.1323C100.548 60.197 100.459 60.2444 100.363 60.2714C100.268 60.2984 100.167 60.3042 100.069 60.2885Z" fill="#E6E6E6"/>
<path d="M64.295 12.9362C64.2056 12.9362 64.1171 12.9183 64.0347 12.8835C63.9523 12.8486 63.8776 12.7976 63.8152 12.7334C63.7528 12.6692 63.7038 12.5931 63.6712 12.5096C63.6386 12.4261 63.6229 12.3369 63.6252 12.2472V2.84221C63.6229 2.75255 63.6386 2.66334 63.6712 2.57983C63.7038 2.49633 63.7528 2.42022 63.8152 2.356C63.8776 2.29179 63.9523 2.24076 64.0347 2.20592C64.1171 2.17109 64.2056 2.15317 64.295 2.1532C64.4772 2.1532 64.6519 2.22579 64.7808 2.355C64.9096 2.48422 64.982 2.65947 64.982 2.84221V12.2472C64.982 12.4299 64.9096 12.6052 64.7808 12.7344C64.6519 12.8636 64.4772 12.9362 64.295 12.9362Z" fill="#E6E6E6"/>
<path d="M69.0007 8.21651H59.6063C59.5177 8.21888 59.4296 8.20313 59.3472 8.17021C59.2649 8.13729 59.1901 8.08789 59.1274 8.02503C59.0647 7.96217 59.0155 7.88717 58.9827 7.80459C58.9498 7.72202 58.9341 7.63359 58.9365 7.54473C58.9342 7.45507 58.9498 7.36585 58.9825 7.28235C59.0151 7.19885 59.0641 7.12275 59.1265 7.05853C59.1889 6.99431 59.2636 6.94328 59.346 6.90845C59.4284 6.87362 59.5169 6.85568 59.6063 6.85571H69.0007C69.1799 6.86021 69.3503 6.93478 69.4754 7.06351C69.6006 7.19224 69.6706 7.36493 69.6705 7.54473C69.6705 7.72289 69.6 7.89377 69.4743 8.01975C69.3487 8.14573 69.1784 8.21651 69.0007 8.21651Z" fill="#E6E6E6"/>
<path d="M118.841 166.62H24.9484C24.4481 166.654 23.9461 166.585 23.4735 166.417C23.0009 166.249 22.5679 165.985 22.2014 165.641C21.8348 165.298 21.5425 164.883 21.3427 164.422C21.1429 163.96 21.0398 163.463 21.0398 162.96C21.0398 162.457 21.1429 161.959 21.3427 161.498C21.5425 161.036 21.8348 160.621 22.2014 160.278C22.5679 159.935 23.0009 159.671 23.4735 159.502C23.9461 159.334 24.4481 159.265 24.9484 159.299H118.841C119.341 159.265 119.843 159.334 120.316 159.502C120.789 159.671 121.222 159.935 121.588 160.278C121.955 160.621 122.247 161.036 122.447 161.498C122.647 161.959 122.75 162.457 122.75 162.96C122.75 163.463 122.647 163.96 122.447 164.422C122.247 164.883 121.955 165.298 121.588 165.641C121.222 165.985 120.789 166.249 120.316 166.417C119.843 166.585 119.341 166.654 118.841 166.62ZM24.9484 160.677C24.6307 160.65 24.3107 160.689 24.0087 160.792C23.7067 160.895 23.4294 161.06 23.1943 161.276C22.9592 161.492 22.7715 161.755 22.6431 162.048C22.5148 162.341 22.4485 162.657 22.4485 162.977C22.4485 163.297 22.5148 163.613 22.6431 163.906C22.7715 164.199 22.9592 164.462 23.1943 164.678C23.4294 164.894 23.7067 165.059 24.0087 165.162C24.3107 165.265 24.6307 165.304 24.9484 165.276H118.841C119.415 165.227 119.949 164.963 120.338 164.537C120.728 164.111 120.944 163.555 120.944 162.977C120.944 162.399 120.728 161.842 120.338 161.417C119.949 160.991 119.415 160.727 118.841 160.677H24.9484Z" fill="#E6E6E6"/>
<path d="M160.936 110.724H126.226C125.833 110.72 125.457 110.56 125.181 110.279C124.904 109.999 124.749 109.62 124.749 109.225C124.753 108.834 124.911 108.46 125.187 108.183C125.463 107.906 125.836 107.749 126.226 107.744H160.936C161.329 107.744 161.706 107.9 161.986 108.177C162.266 108.454 162.425 108.831 162.43 109.225C162.43 109.623 162.272 110.004 161.992 110.285C161.712 110.566 161.332 110.724 160.936 110.724Z" fill="#E6E6E6"/>
<path d="M83.9597 139.611H57.3909C56.9976 139.611 56.6201 139.455 56.3404 139.178C56.0607 138.901 55.9012 138.524 55.8967 138.129C55.8967 137.732 56.0541 137.351 56.3344 137.07C56.6146 136.789 56.9946 136.631 57.3909 136.631H83.9597C84.1551 136.631 84.3486 136.67 84.529 136.745C84.7093 136.821 84.8729 136.931 85.0103 137.071C85.1476 137.21 85.2561 137.375 85.3293 137.557C85.4025 137.739 85.439 137.933 85.4367 138.129C85.4367 138.324 85.3985 138.517 85.3243 138.696C85.2501 138.876 85.1413 139.039 85.0041 139.177C84.867 139.314 84.7041 139.424 84.5249 139.498C84.3457 139.572 84.1537 139.611 83.9597 139.611Z" fill="#E6E6E6"/>
<path d="M70.409 121.266C70.349 121.268 70.289 121.258 70.2329 121.237C70.1767 121.215 70.1254 121.183 70.0821 121.141C70.0388 121.099 70.0044 121.049 69.9809 120.994C69.9574 120.938 69.9453 120.878 69.9453 120.818V110.931C69.9453 110.812 69.9924 110.698 70.0761 110.614C70.1598 110.53 70.2734 110.483 70.3919 110.483H80.1984C80.3288 110.487 80.4521 110.543 80.5419 110.638C80.6217 110.721 80.6663 110.832 80.6663 110.948C80.6663 111.064 80.6217 111.175 80.5419 111.258L70.7353 121.145C70.6446 121.224 70.5287 121.266 70.409 121.266ZM70.8384 111.379V119.75L79.1508 111.379H70.8384Z" fill="#E6E6E6"/>
<path d="M70.392 121.266H41.0237C40.9658 121.266 40.9086 121.254 40.8553 121.232C40.8021 121.209 40.754 121.176 40.7139 121.134C40.6738 121.092 40.6425 121.042 40.622 120.988C40.6014 120.934 40.592 120.876 40.5943 120.818V67.2819C40.5943 67.1661 40.6389 67.0547 40.719 66.9712C40.7991 66.8877 40.9083 66.8385 41.0237 66.834H80.2673C80.3857 66.834 80.4993 66.8812 80.583 66.9652C80.6667 67.0492 80.7138 67.1631 80.7138 67.2819V110.931C80.7162 110.99 80.7063 111.05 80.6847 111.105C80.6631 111.16 80.6304 111.211 80.5884 111.253C80.5464 111.295 80.4962 111.328 80.441 111.349C80.3857 111.371 80.3266 111.381 80.2673 111.379H70.9072V120.818C70.908 120.883 70.8946 120.948 70.868 121.007C70.8414 121.066 70.8022 121.119 70.7531 121.162C70.7041 121.204 70.6464 121.236 70.584 121.254C70.5216 121.272 70.4561 121.276 70.392 121.266ZM41.4015 120.37H69.9454V110.931C69.9454 110.812 69.9925 110.698 70.0762 110.614C70.16 110.53 70.2735 110.483 70.392 110.483H79.752V67.6609H41.4015V120.37ZM51.9295 111C51.5841 110.993 51.2458 110.9 50.9457 110.729C50.6456 110.557 50.3933 110.313 50.212 110.018L48.8037 107.675C48.6661 107.444 48.5755 107.189 48.5372 106.922C48.4989 106.656 48.5136 106.385 48.5804 106.125C48.6379 105.864 48.7484 105.617 48.905 105.401C49.0616 105.185 49.261 105.003 49.4907 104.867L65.9094 94.894C66.0038 94.8598 66.1071 94.8598 66.2014 94.894L70.7698 95.3763C70.8365 95.3828 70.9008 95.4049 70.9574 95.4408C71.0141 95.4767 71.0616 95.5254 71.0961 95.583C71.1293 95.6406 71.1467 95.706 71.1467 95.7725C71.1467 95.839 71.1293 95.9044 71.0961 95.962L69.5848 100.544C69.542 100.643 69.4702 100.727 69.3787 100.785L54.3682 109.897L53.0458 110.724C52.71 110.927 52.3208 111.023 51.9295 111ZM66.2186 95.738L49.9201 105.643C49.7925 105.717 49.6811 105.816 49.5926 105.935C49.504 106.053 49.4402 106.188 49.4048 106.332C49.3667 106.48 49.3592 106.634 49.3828 106.785C49.4065 106.936 49.4607 107.081 49.5422 107.21L50.9505 109.553C51.1074 109.811 51.359 109.997 51.6512 110.071C51.9435 110.145 52.2531 110.101 52.5134 109.949L53.9217 109.088L68.7432 100.079L70.0485 96.1859L66.2186 95.738Z" fill="#E6E6E6"/>
<path d="M69.1726 100.785C69.0971 100.787 69.0224 100.769 68.956 100.733C68.8897 100.696 68.8341 100.643 68.7948 100.578L65.7377 95.5141C65.6919 95.4421 65.6675 95.3584 65.6675 95.273C65.6675 95.1875 65.6919 95.1038 65.7377 95.0318C65.7847 94.9634 65.8498 94.9094 65.9256 94.876C66.0014 94.8425 66.0851 94.8309 66.1671 94.8423L70.7355 95.3246C70.8022 95.3312 70.8664 95.3533 70.9231 95.3891C70.9798 95.425 71.0273 95.4737 71.0618 95.5313C71.095 95.589 71.1124 95.6543 71.1124 95.7208C71.1124 95.7873 71.095 95.8527 71.0618 95.9103L69.5505 100.492C69.5184 100.57 69.4666 100.638 69.4003 100.689C69.3341 100.74 69.2556 100.773 69.1726 100.785ZM66.9571 95.8242L69.0524 99.2692L70.1 96.1342L66.9571 95.8242Z" fill="#E6E6E6"/>
<path d="M54.1622 109.914C54.0831 109.913 54.0056 109.891 53.9367 109.852C53.8678 109.813 53.8096 109.758 53.7672 109.691L52.2387 107.176C52.2011 107.104 52.1814 107.024 52.1814 106.943C52.1814 106.862 52.2011 106.782 52.2387 106.711C52.2964 106.63 52.3731 106.565 52.4619 106.521L67.438 97.4261C67.5443 97.393 67.6581 97.393 67.7643 97.4261C67.8219 97.4398 67.876 97.4652 67.9232 97.5007C67.9705 97.5363 68.01 97.5813 68.0391 97.6328L69.5677 100.165C69.6011 100.215 69.6238 100.271 69.6341 100.331C69.6445 100.39 69.6423 100.451 69.6277 100.509C69.6132 100.568 69.5865 100.623 69.5496 100.67C69.5126 100.718 69.4661 100.757 69.4131 100.785L54.4026 109.897C54.3265 109.929 54.2421 109.935 54.1622 109.914ZM53.2348 107.09L54.2996 108.812L68.5544 100.199L67.4896 98.4769L53.2348 107.09Z" fill="#E6E6E6"/>
<path d="M52.6163 107.382C52.5414 107.381 52.4679 107.362 52.4021 107.326C52.3363 107.29 52.2801 107.238 52.2385 107.176L50.7272 104.644C50.7068 104.597 50.6963 104.548 50.6963 104.497C50.6963 104.447 50.7068 104.397 50.7272 104.351C50.7337 104.284 50.7557 104.219 50.7915 104.162C50.8273 104.106 50.8758 104.058 50.9332 104.023L65.9437 94.894C66.047 94.8357 66.1686 94.8193 66.2836 94.8481C66.3986 94.8769 66.4982 94.9488 66.562 95.049L68.0905 97.5811C68.1152 97.6352 68.128 97.694 68.128 97.7534C68.128 97.8129 68.1152 97.8716 68.0905 97.9257C68.061 98.0366 67.9943 98.1339 67.9016 98.2013L52.8568 107.279C52.7907 107.34 52.7059 107.376 52.6163 107.382ZM51.7061 104.557L52.7709 106.28L67.0257 97.6673L65.9609 95.9448L51.7061 104.557Z" fill="#E6E6E6"/>
<path d="M51.9294 111C51.584 110.993 51.2458 110.9 50.9457 110.729C50.6456 110.557 50.3933 110.313 50.212 110.018L48.8037 107.675C48.6661 107.444 48.5755 107.189 48.5372 106.922C48.4988 106.656 48.5135 106.385 48.5804 106.125C48.6379 105.864 48.7484 105.617 48.905 105.401C49.0616 105.185 49.261 105.003 49.4907 104.867L50.899 104.023C50.9761 103.959 51.0733 103.924 51.1738 103.924C51.2742 103.924 51.3714 103.959 51.4485 104.023L54.4884 109.07C54.5202 109.12 54.5418 109.176 54.5521 109.234C54.5624 109.292 54.5611 109.351 54.5483 109.409C54.5355 109.467 54.5115 109.521 54.4777 109.57C54.4438 109.618 54.4008 109.659 54.351 109.69L52.9427 110.552C52.6555 110.797 52.3034 110.952 51.9294 111ZM50.9333 105.022L49.92 105.643C49.7924 105.717 49.6811 105.816 49.5925 105.935C49.504 106.053 49.4402 106.188 49.4048 106.332C49.3666 106.48 49.3592 106.634 49.3828 106.785C49.4064 106.936 49.4607 107.081 49.5422 107.21L50.9505 109.553C51.1073 109.811 51.3589 109.997 51.6512 110.071C51.9435 110.145 52.253 110.101 52.5134 109.949L53.5438 109.312L52.3416 107.365L50.9333 105.022Z" fill="#E6E6E6"/>
<path d="M70.392 121.266H41.0237C40.9658 121.266 40.9086 121.254 40.8553 121.232C40.8021 121.209 40.754 121.176 40.7139 121.134C40.6738 121.092 40.6425 121.042 40.622 120.988C40.6014 120.934 40.592 120.876 40.5943 120.818V67.2819C40.5943 67.1661 40.6389 67.0547 40.719 66.9712C40.7991 66.8877 40.9083 66.8385 41.0237 66.834H80.2673C80.3857 66.834 80.4993 66.8812 80.583 66.9652C80.6667 67.0492 80.7138 67.1631 80.7138 67.2819V110.931C80.7162 110.99 80.7063 111.05 80.6847 111.105C80.6631 111.16 80.6304 111.211 80.5884 111.253C80.5464 111.295 80.4962 111.328 80.441 111.349C80.3857 111.371 80.3266 111.381 80.2673 111.379H70.9072V120.818C70.908 120.883 70.8946 120.948 70.868 121.007C70.8414 121.066 70.8022 121.119 70.7531 121.162C70.7041 121.204 70.6464 121.236 70.584 121.254C70.5216 121.272 70.4561 121.276 70.392 121.266ZM41.4015 120.37H69.9454V110.931C69.9454 110.812 69.9925 110.698 70.0762 110.614C70.16 110.53 70.2735 110.483 70.392 110.483H79.752V67.6609H41.4015V120.37Z" fill="#E6E6E6"/>
<path d="M70.4091 121.266C70.3213 121.267 70.2351 121.241 70.1614 121.193C70.0878 121.145 70.0299 121.077 69.9951 120.996C69.9603 120.915 69.95 120.825 69.9656 120.738C69.9812 120.652 70.022 120.572 70.0828 120.508L79.9066 110.638C79.9886 110.556 80.0998 110.509 80.2158 110.509C80.3317 110.509 80.4429 110.556 80.5249 110.638C80.6069 110.72 80.6529 110.832 80.6529 110.948C80.6529 111.064 80.6069 111.176 80.5249 111.258L70.7183 121.145C70.6345 121.224 70.5238 121.267 70.4091 121.266Z" fill="#E6E6E6"/>
<path d="M73.552 77.5998H47.1377C47.0193 77.5998 46.9057 77.5526 46.8219 77.4686C46.7382 77.3847 46.6912 77.2707 46.6912 77.152C46.6912 77.0332 46.7382 76.9193 46.8219 76.8353C46.9057 76.7513 47.0193 76.7041 47.1377 76.7041H73.552C73.6704 76.7041 73.784 76.7513 73.8677 76.8353C73.9514 76.9193 73.9985 77.0332 73.9985 77.152C73.9985 77.2707 73.9514 77.3847 73.8677 77.4686C73.784 77.5526 73.6704 77.5998 73.552 77.5998Z" fill="#E6E6E6"/>
<path d="M73.5521 84.7139H47.1378C47.0792 84.7139 47.0211 84.7023 46.9669 84.6798C46.9127 84.6573 46.8635 84.6243 46.8221 84.5827C46.7806 84.5411 46.7477 84.4917 46.7253 84.4374C46.7028 84.3831 46.6913 84.3248 46.6913 84.266C46.6889 84.2066 46.6987 84.1472 46.7203 84.0918C46.7419 84.0364 46.7747 83.986 46.8167 83.9439C46.8586 83.9019 46.9088 83.869 46.9641 83.8473C47.0194 83.8257 47.0785 83.8157 47.1378 83.8182H73.5521C73.6114 83.8157 73.6705 83.8257 73.7258 83.8473C73.7811 83.869 73.8312 83.9019 73.8732 83.9439C73.9152 83.986 73.948 84.0364 73.9696 84.0918C73.9911 84.1472 74.001 84.2066 73.9986 84.266C73.9986 84.3248 73.9871 84.3831 73.9646 84.4374C73.9422 84.4917 73.9093 84.5411 73.8678 84.5827C73.8264 84.6243 73.7771 84.6573 73.723 84.6798C73.6688 84.7023 73.6107 84.7139 73.5521 84.7139Z" fill="#E6E6E6"/>
<path d="M73.552 91.7762H47.1377C47.0193 91.7762 46.9057 91.7291 46.8219 91.6451C46.7382 91.5611 46.6912 91.4472 46.6912 91.3284C46.6912 91.2096 46.7382 91.0957 46.8219 91.0117C46.9057 90.9277 47.0193 90.8805 47.1377 90.8805H73.552C73.6704 90.8805 73.784 90.9277 73.8677 91.0117C73.9514 91.0957 73.9985 91.2096 73.9985 91.3284C73.9985 91.4472 73.9514 91.5611 73.8677 91.6451C73.784 91.7291 73.6704 91.7762 73.552 91.7762Z" fill="#E6E6E6"/>
<path d="M51.9294 111C51.584 110.993 51.2458 110.9 50.9457 110.729C50.6456 110.557 50.3933 110.313 50.212 110.018L48.8037 107.675C48.6661 107.444 48.5755 107.189 48.5372 106.922C48.4988 106.656 48.5135 106.385 48.5804 106.125C48.6379 105.864 48.7484 105.617 48.905 105.401C49.0616 105.185 49.261 105.003 49.4907 104.867L65.9094 94.894C66.0037 94.8598 66.107 94.8598 66.2014 94.894L70.7698 95.3763C70.8365 95.3828 70.9007 95.4049 70.9574 95.4408C71.014 95.4767 71.0615 95.5254 71.0961 95.583C71.1292 95.6406 71.1467 95.706 71.1467 95.7725C71.1467 95.839 71.1292 95.9044 71.0961 95.962L69.5847 100.544C69.542 100.643 69.4701 100.727 69.3786 100.785L54.3682 109.897L53.0458 110.724C52.7099 110.927 52.3207 111.023 51.9294 111ZM66.2185 95.738L49.92 105.643C49.7924 105.717 49.6811 105.816 49.5925 105.935C49.504 106.053 49.4402 106.188 49.4048 106.332C49.3666 106.48 49.3592 106.634 49.3828 106.785C49.4064 106.936 49.4607 107.081 49.5422 107.21L50.9505 109.553C51.1073 109.811 51.3589 109.997 51.6512 110.071C51.9435 110.145 52.253 110.101 52.5134 109.949L53.9217 109.088L68.7432 100.079L70.0484 96.1859L66.2185 95.738Z" fill="#E6E6E6"/>
<path d="M54.1621 109.914C54.055 109.919 53.9503 109.882 53.8701 109.811L53.767 109.691L50.71 104.644C50.6519 104.54 50.6355 104.418 50.6642 104.303C50.693 104.187 50.7647 104.087 50.8646 104.023C50.9679 103.965 51.0895 103.949 51.2045 103.978C51.3194 104.006 51.4191 104.078 51.4828 104.178L54.5055 109.191C54.5677 109.27 54.6037 109.366 54.6086 109.467C54.6086 109.525 54.597 109.584 54.5746 109.638C54.5522 109.692 54.5193 109.742 54.4778 109.783C54.4363 109.825 54.3871 109.858 54.3329 109.88C54.2788 109.903 54.2207 109.914 54.1621 109.914Z" fill="#E6E6E6"/>
<path d="M69.1726 100.785C69.0971 100.787 69.0224 100.769 68.956 100.733C68.8897 100.696 68.8341 100.643 68.7948 100.578L65.7378 95.5141C65.706 95.4644 65.6844 95.4089 65.6741 95.3508C65.6638 95.2926 65.6651 95.233 65.6779 95.1754C65.6906 95.1178 65.7146 95.0632 65.7485 95.015C65.7824 94.9667 65.8254 94.9256 65.8751 94.894C65.9784 94.8357 66.1001 94.8193 66.215 94.8481C66.33 94.8769 66.4296 94.9488 66.4934 95.049L69.5505 100.113C69.584 100.163 69.6066 100.22 69.6169 100.279C69.6273 100.338 69.6251 100.399 69.6106 100.458C69.596 100.516 69.5694 100.571 69.5324 100.618C69.4954 100.666 69.4489 100.705 69.3959 100.733C69.3267 100.768 69.2501 100.786 69.1726 100.785Z" fill="#E6E6E6"/>
<path d="M52.6164 107.382C52.5412 107.383 52.4671 107.364 52.401 107.328C52.335 107.292 52.2791 107.239 52.2386 107.176C52.1804 107.072 52.1641 106.95 52.1928 106.835C52.2215 106.719 52.2932 106.619 52.3931 106.556L67.4208 97.4261C67.4715 97.3956 67.5277 97.3754 67.5863 97.3666C67.6448 97.3579 67.7045 97.3608 67.7619 97.3752C67.8193 97.3896 67.8733 97.4152 67.9209 97.4505C67.9684 97.4859 68.0086 97.5303 68.039 97.5811C68.0695 97.632 68.0896 97.6885 68.0983 97.7472C68.1071 97.8059 68.1041 97.8657 68.0898 97.9233C68.0754 97.9809 68.0499 98.0351 68.0147 98.0828C67.9795 98.1305 67.9352 98.1707 67.8845 98.2013L52.8568 107.279C52.7907 107.34 52.7059 107.376 52.6164 107.382Z" fill="#E6E6E6"/>
<path d="M469.474 134.185C468.74 134.185 468.023 133.967 467.413 133.558C466.803 133.149 466.327 132.568 466.047 131.888C465.766 131.208 465.692 130.46 465.835 129.738C465.979 129.017 466.332 128.354 466.851 127.833C467.37 127.313 468.031 126.959 468.75 126.815C469.47 126.671 470.216 126.745 470.893 127.027C471.571 127.308 472.151 127.785 472.558 128.397C472.966 129.009 473.184 129.728 473.184 130.464C473.184 130.953 473.088 131.437 472.901 131.888C472.715 132.339 472.441 132.75 472.097 133.095C471.752 133.441 471.344 133.715 470.893 133.902C470.443 134.089 469.961 134.185 469.474 134.185ZM469.474 128.104C469.008 128.104 468.554 128.243 468.167 128.502C467.78 128.761 467.478 129.13 467.3 129.561C467.122 129.992 467.075 130.467 467.166 130.925C467.257 131.382 467.481 131.803 467.81 132.133C468.139 132.463 468.558 132.688 469.015 132.779C469.471 132.87 469.944 132.823 470.374 132.644C470.804 132.466 471.172 132.163 471.43 131.775C471.689 131.387 471.827 130.931 471.827 130.464C471.822 129.84 471.573 129.242 471.133 128.8C470.692 128.359 470.096 128.109 469.474 128.104Z" fill="#E6E6E6"/>
<path d="M622.155 184.207C621.421 184.207 620.704 183.989 620.094 183.58C619.483 183.171 619.008 182.59 618.727 181.91C618.446 181.23 618.373 180.482 618.516 179.76C618.659 179.039 619.013 178.376 619.531 177.855C620.05 177.335 620.711 176.981 621.431 176.837C622.15 176.694 622.896 176.767 623.574 177.049C624.252 177.331 624.831 177.807 625.239 178.419C625.647 179.031 625.864 179.75 625.864 180.486C625.864 180.975 625.768 181.459 625.582 181.91C625.395 182.362 625.122 182.772 624.778 183.117C624.433 183.463 624.024 183.737 623.574 183.924C623.124 184.111 622.642 184.207 622.155 184.207ZM622.155 178.126C621.689 178.126 621.234 178.265 620.847 178.524C620.46 178.783 620.159 179.152 619.981 179.583C619.803 180.014 619.756 180.489 619.847 180.947C619.938 181.405 620.162 181.825 620.491 182.155C620.82 182.485 621.239 182.71 621.695 182.801C622.152 182.892 622.625 182.845 623.055 182.667C623.485 182.488 623.852 182.185 624.111 181.797C624.369 181.409 624.507 180.953 624.507 180.486C624.507 179.86 624.26 179.26 623.818 178.818C623.377 178.375 622.779 178.126 622.155 178.126Z" fill="#E6E6E6"/>
<path d="M582.018 221.706C581.929 221.709 581.841 221.693 581.759 221.66C581.676 221.627 581.602 221.578 581.539 221.515C581.476 221.452 581.427 221.377 581.394 221.294C581.361 221.212 581.346 221.123 581.348 221.035V211.612C581.346 211.524 581.361 211.435 581.394 211.353C581.427 211.27 581.476 211.195 581.539 211.132C581.602 211.069 581.676 211.02 581.759 210.987C581.841 210.954 581.929 210.938 582.018 210.941C582.107 210.938 582.196 210.954 582.279 210.987C582.363 211.019 582.438 211.069 582.502 211.131C582.567 211.194 582.617 211.269 582.652 211.351C582.687 211.434 582.705 211.523 582.705 211.612V220.966C582.715 221.061 582.704 221.157 582.674 221.248C582.643 221.339 582.594 221.422 582.529 221.492C582.464 221.563 582.385 221.618 582.296 221.655C582.208 221.692 582.113 221.709 582.018 221.706Z" fill="#E6E6E6"/>
<path d="M586.741 217.004H577.364C577.265 217.02 577.165 217.014 577.069 216.987C576.974 216.96 576.885 216.912 576.809 216.848C576.734 216.783 576.673 216.703 576.632 216.612C576.59 216.522 576.568 216.423 576.568 216.323C576.568 216.224 576.59 216.125 576.632 216.035C576.673 215.944 576.734 215.864 576.809 215.799C576.885 215.735 576.974 215.687 577.069 215.66C577.165 215.633 577.265 215.627 577.364 215.643H586.741C586.839 215.627 586.939 215.633 587.035 215.66C587.131 215.687 587.219 215.735 587.295 215.799C587.371 215.864 587.431 215.944 587.473 216.035C587.515 216.125 587.536 216.224 587.536 216.323C587.536 216.423 587.515 216.522 587.473 216.612C587.431 216.703 587.371 216.783 587.295 216.848C587.219 216.912 587.131 216.96 587.035 216.987C586.939 217.014 586.839 217.02 586.741 217.004Z" fill="#E6E6E6"/>
<path d="M561.048 84.7139C560.866 84.7139 560.691 84.6413 560.562 84.5121C560.433 84.3828 560.361 84.2076 560.361 84.0248V74.551C560.361 74.3682 560.433 74.193 560.562 74.0637C560.691 73.9345 560.866 73.8619 561.048 73.8619C561.137 73.8619 561.226 73.8798 561.308 73.9147C561.391 73.9495 561.465 74.0005 561.528 74.0648C561.59 74.129 561.639 74.2051 561.672 74.2886C561.704 74.3721 561.72 74.4613 561.718 74.551V83.9559C561.73 84.0511 561.722 84.1478 561.694 84.2395C561.665 84.3313 561.618 84.4159 561.555 84.4877C561.491 84.5595 561.413 84.6169 561.326 84.6559C561.238 84.6949 561.143 84.7147 561.048 84.7139Z" fill="#E6E6E6"/>
<path d="M565.737 79.9942H556.359C556.27 79.9965 556.181 79.9808 556.098 79.948C556.014 79.9153 555.939 79.8662 555.875 79.8036C555.811 79.741 555.76 79.6661 555.725 79.5835C555.69 79.5008 555.672 79.4121 555.672 79.3224C555.672 79.1396 555.745 78.9644 555.874 78.8352C556.002 78.706 556.177 78.6334 556.359 78.6334H565.737C565.827 78.6334 565.916 78.6512 565.999 78.6858C566.083 78.7204 566.159 78.7712 566.222 78.8352C566.286 78.8991 566.337 78.9751 566.371 79.0587C566.406 79.1423 566.424 79.2319 566.424 79.3224C566.424 79.4121 566.406 79.5008 566.371 79.5835C566.336 79.6661 566.285 79.741 566.221 79.8036C566.157 79.8662 566.081 79.9153 565.998 79.948C565.915 79.9808 565.826 79.9965 565.737 79.9942Z" fill="#E6E6E6"/>
<path d="M529.962 32.6419C529.873 32.6419 529.784 32.624 529.702 32.5892C529.619 32.5543 529.545 32.5033 529.482 32.4391C529.42 32.3749 529.371 32.2988 529.338 32.2153C529.306 32.1318 529.29 32.0425 529.292 31.9529V22.5479C529.29 22.4582 529.306 22.369 529.338 22.2855C529.371 22.202 529.42 22.1259 529.482 22.0617C529.545 21.9975 529.619 21.9464 529.702 21.9116C529.784 21.8768 529.873 21.8589 529.962 21.8589C530.144 21.8589 530.319 21.9315 530.448 22.0607C530.577 22.1899 530.649 22.3651 530.649 22.5479V31.9529C530.649 32.1356 530.577 32.3109 530.448 32.4401C530.319 32.5693 530.144 32.6419 529.962 32.6419Z" fill="#E6E6E6"/>
<path d="M534.651 27.9394H525.342C525.16 27.9394 524.985 27.8668 524.856 27.7376C524.728 27.6084 524.655 27.4331 524.655 27.2504C524.655 27.1607 524.673 27.0719 524.708 26.9892C524.743 26.9066 524.793 26.8318 524.857 26.7692C524.922 26.7065 524.997 26.6574 525.081 26.6247C525.164 26.592 525.253 26.5763 525.342 26.5786H534.719C534.809 26.5763 534.898 26.592 534.981 26.6247C535.064 26.6574 535.14 26.7065 535.204 26.7692C535.268 26.8318 535.319 26.9066 535.354 26.9892C535.389 27.0719 535.406 27.1607 535.406 27.2504C535.407 27.347 535.387 27.4426 535.348 27.531C535.31 27.6194 535.253 27.6987 535.182 27.7637C535.11 27.8286 535.026 27.8778 534.935 27.9081C534.843 27.9384 534.747 27.949 534.651 27.9394Z" fill="#E6E6E6"/>
<path d="M584.508 186.326H490.616C490.115 186.36 489.613 186.291 489.141 186.123C488.668 185.954 488.235 185.69 487.869 185.347C487.502 185.004 487.21 184.589 487.01 184.127C486.81 183.666 486.707 183.168 486.707 182.665C486.707 182.162 486.81 181.665 487.01 181.203C487.21 180.742 487.502 180.327 487.869 179.984C488.235 179.64 488.668 179.376 489.141 179.208C489.613 179.04 490.115 178.971 490.616 179.005H584.508C585.009 178.971 585.511 179.04 585.983 179.208C586.456 179.376 586.889 179.64 587.255 179.984C587.622 180.327 587.914 180.742 588.114 181.203C588.314 181.665 588.417 182.162 588.417 182.665C588.417 183.168 588.314 183.666 588.114 184.127C587.914 184.589 587.622 185.004 587.255 185.347C586.889 185.69 586.456 185.954 585.983 186.123C585.511 186.291 585.009 186.36 584.508 186.326ZM490.616 180.383C490.01 180.383 489.429 180.624 489 181.054C488.572 181.484 488.331 182.066 488.331 182.674C488.331 183.282 488.572 183.864 489 184.294C489.429 184.724 490.01 184.965 490.616 184.965H584.508C585.114 184.965 585.695 184.724 586.123 184.294C586.552 183.864 586.792 183.282 586.792 182.674C586.792 182.066 586.552 181.484 586.123 181.054C585.695 180.624 585.114 180.383 584.508 180.383H490.616Z" fill="#E6E6E6"/>
<path d="M626.671 130.464H591.893C591.698 130.466 591.505 130.43 591.325 130.356C591.145 130.282 590.981 130.173 590.844 130.035C590.706 129.897 590.597 129.733 590.524 129.552C590.45 129.372 590.414 129.178 590.416 128.983C590.414 128.787 590.45 128.592 590.524 128.411C590.597 128.229 590.705 128.064 590.843 127.924C590.98 127.785 591.144 127.674 591.324 127.599C591.504 127.523 591.698 127.484 591.893 127.484H626.671C627.068 127.484 627.448 127.642 627.728 127.923C628.008 128.204 628.165 128.585 628.165 128.983C628.165 129.179 628.127 129.373 628.051 129.554C627.976 129.735 627.866 129.899 627.727 130.036C627.588 130.174 627.423 130.283 627.242 130.356C627.061 130.43 626.867 130.466 626.671 130.464Z" fill="#E6E6E6"/>
<path d="M549.61 159.316H523.058C522.863 159.319 522.669 159.282 522.488 159.209C522.306 159.135 522.142 159.026 522.003 158.889C521.864 158.751 521.753 158.587 521.678 158.406C521.603 158.225 521.564 158.031 521.564 157.835C521.564 157.438 521.721 157.056 522.002 156.775C522.282 156.494 522.662 156.336 523.058 156.336H549.61C549.805 156.336 549.999 156.375 550.179 156.451C550.359 156.526 550.523 156.637 550.66 156.776C550.798 156.916 550.906 157.081 550.979 157.263C551.053 157.445 551.089 157.639 551.087 157.835C551.089 158.03 551.053 158.224 550.979 158.405C550.906 158.585 550.797 158.75 550.659 158.888C550.522 159.026 550.358 159.135 550.178 159.208C549.998 159.282 549.804 159.319 549.61 159.316Z" fill="#E6E6E6"/>
<path d="M418.002 55.6032H227.881C226.318 55.6025 224.771 55.9165 223.331 56.5265C221.892 57.1366 220.589 58.0303 219.5 59.1548C218.41 60.2792 217.558 61.6114 216.991 63.0725C216.425 64.5336 216.157 66.0939 216.203 67.6608V194.284C216.203 195.386 216.735 196.936 217.817 196.936H428.049C428.733 196.832 429.369 196.523 429.875 196.049C430.381 195.576 430.732 194.961 430.883 194.284V67.6608C430.883 60.9258 424.632 55.6032 418.002 55.6032ZM425.731 193.405H219.638V67.6608C219.638 63.1823 223.416 60.7707 227.881 60.7707H418.002C422.45 60.7707 425.731 63.0961 425.731 67.6608V193.405Z" fill="#F2F2F2"/>
<path d="M415.1 68.4705H230.767C229.676 68.4705 228.792 69.3573 228.792 70.4514V181.227C228.792 182.321 229.676 183.208 230.767 183.208H415.1C416.191 183.208 417.075 182.321 417.075 181.227V70.4514C417.075 69.3573 416.191 68.4705 415.1 68.4705Z" fill="#F2F2F2"/>
<path d="M428.067 215.557H217.817C209.745 215.557 203.167 210.389 203.167 203.895V194.198C203.167 193.677 203.374 193.177 203.741 192.809C204.108 192.441 204.606 192.234 205.125 192.234H440.758C441.278 192.234 441.776 192.441 442.143 192.809C442.51 193.177 442.716 193.677 442.716 194.198V203.895C442.716 210.32 436.156 215.557 428.067 215.557ZM207.1 196.179V203.895C207.1 208.064 212.012 211.595 217.817 211.595H428.067C433.871 211.595 438.783 208.064 438.783 203.895V196.179H207.1Z" fill="#F2F2F2"/>
<path d="M322.942 210.097C321.719 210.097 320.524 209.733 319.507 209.052C318.49 208.37 317.698 207.402 317.23 206.269C316.762 205.135 316.639 203.889 316.878 202.686C317.116 201.483 317.705 200.378 318.57 199.511C319.435 198.643 320.536 198.053 321.736 197.814C322.935 197.574 324.178 197.697 325.308 198.166C326.438 198.636 327.403 199.431 328.083 200.45C328.762 201.47 329.125 202.669 329.125 203.895C329.125 205.54 328.473 207.117 327.314 208.28C326.154 209.443 324.582 210.097 322.942 210.097ZM322.942 201.639C322.497 201.639 322.062 201.771 321.692 202.019C321.322 202.267 321.034 202.62 320.863 203.032C320.693 203.444 320.648 203.898 320.735 204.336C320.822 204.773 321.036 205.176 321.351 205.491C321.666 205.807 322.066 206.022 322.503 206.109C322.939 206.196 323.392 206.151 323.803 205.98C324.214 205.809 324.565 205.52 324.813 205.149C325.06 204.778 325.192 204.342 325.192 203.895C325.192 203.297 324.955 202.723 324.533 202.3C324.111 201.877 323.539 201.639 322.942 201.639Z" fill="#F2F2F2"/>
<path d="M257.765 164.656C254.112 160.732 249.381 157.982 244.17 156.755C238.959 155.527 233.502 155.877 228.489 157.759C223.476 159.642 219.133 162.973 216.007 167.331C212.882 171.689 211.115 176.879 210.93 182.245C210.745 187.61 212.15 192.91 214.968 197.474C217.786 202.039 221.891 205.663 226.762 207.888C231.633 210.113 237.053 210.84 242.336 209.976C247.619 209.112 252.528 206.696 256.442 203.034C261.689 198.119 264.776 191.316 265.024 184.12C265.272 176.923 262.661 169.923 257.765 164.656ZM251.719 197.936C248.809 200.659 245.159 202.456 241.23 203.098C237.302 203.741 233.271 203.201 229.648 201.547C226.026 199.893 222.973 197.198 220.877 193.805C218.781 190.411 217.736 186.47 217.872 182.48C218.009 178.49 219.322 174.63 221.646 171.389C223.97 168.147 227.2 165.67 230.927 164.269C234.654 162.868 238.712 162.608 242.588 163.52C246.463 164.432 249.981 166.476 252.698 169.393C256.335 173.312 258.275 178.517 258.091 183.867C257.908 189.218 255.616 194.277 251.719 197.936Z" fill="white"/>
<path d="M259.788 183.181C259.94 171.261 250.429 161.476 238.545 161.324C226.661 161.172 216.904 170.711 216.753 182.631C216.601 194.55 226.112 204.335 237.996 204.487C249.88 204.639 259.637 195.1 259.788 183.181Z" fill="#F2F2F2"/>
<path opacity="0.35" d="M224.361 184.259C225.584 184.259 226.576 183.264 226.576 182.037C226.576 180.809 225.584 179.815 224.361 179.815C223.137 179.815 222.145 180.809 222.145 182.037C222.145 183.264 223.137 184.259 224.361 184.259Z" fill="white"/>
<path d="M256.649 164.915C253.098 161.241 248.54 158.706 243.552 157.633C238.564 156.56 233.37 156.997 228.63 158.887C223.89 160.778 219.816 164.038 216.924 168.253C214.033 172.469 212.455 177.451 212.39 182.567C212.325 187.683 213.776 192.703 216.559 196.992C219.341 201.28 223.331 204.643 228.022 206.654C232.713 208.666 237.893 209.235 242.907 208.29C247.921 207.345 252.542 204.928 256.185 201.346C258.602 198.985 260.531 196.17 261.862 193.061C263.194 189.952 263.901 186.61 263.944 183.227C263.987 179.843 263.365 176.485 262.113 173.343C260.861 170.2 259.005 167.337 256.649 164.915ZM222.849 197.97C219.878 194.914 217.876 191.043 217.098 186.846C216.32 182.65 216.8 178.316 218.477 174.393C220.155 170.47 222.955 167.134 226.522 164.807C230.09 162.479 234.266 161.265 238.522 161.318C242.778 161.371 246.922 162.689 250.431 165.104C253.94 167.52 256.657 170.924 258.237 174.888C259.817 178.852 260.189 183.196 259.307 187.372C258.425 191.548 256.329 195.368 253.282 198.349C249.195 202.342 243.694 204.546 237.988 204.475C232.282 204.403 226.837 202.064 222.849 197.97Z" fill="#CCCCCC"/>
<path d="M189.256 230.801C188.679 230.208 188.225 229.506 187.918 228.736C187.612 227.967 187.46 227.144 187.472 226.315C187.483 225.486 187.657 224.668 187.984 223.907C188.31 223.145 188.784 222.456 189.376 221.879L207.942 203.74L216.718 212.784L198.153 230.939C197.56 231.517 196.859 231.971 196.091 232.277C195.323 232.583 194.502 232.733 193.676 232.721C192.85 232.708 192.034 232.532 191.275 232.202C190.517 231.873 189.831 231.397 189.256 230.801Z" fill="#CCCCCC"/>
<path d="M210.603 199.017L209.053 200.532C207.192 202.352 207.154 205.34 208.968 207.207L213.284 211.647C215.098 213.513 218.078 213.551 219.939 211.732L221.488 210.217C223.349 208.397 223.387 205.409 221.573 203.543L217.257 199.102C215.443 197.236 212.464 197.198 210.603 199.017Z" fill="#FFFFFD"/>
<path d="M352.305 138.654C354.863 141.22 354.863 145.617 352.305 148.183L347.188 153.313C344.63 155.879 340.244 155.879 337.685 153.313L297.481 113.001C294.923 110.435 294.923 106.038 297.481 103.472L302.781 98.1584C305.339 95.5931 309.725 95.5931 312.284 98.1584L352.305 138.654Z" fill="white"/>
<path d="M337.685 98.3416C340.244 95.7763 344.63 95.7763 347.188 98.3416L352.488 103.656C355.046 106.221 355.046 110.619 352.488 113.184L312.101 153.313C309.543 155.879 305.157 155.879 302.598 153.313L297.481 148.183C294.923 145.617 294.923 141.219 297.481 138.654L337.685 98.3416Z" fill="white"/>
</svg>
