<svg xmlns="http://www.w3.org/2000/svg" viewBox="0 0 98.68 113.98"><defs><style>.cls-1{fill:#098260;}</style></defs><g id="Layer_2" data-name="Layer 2"><g id="Layer_1-2" data-name="Layer 1"><path class="cls-1" d="M0,81.58V28.49L49.34,0,98.68,28.49V81.58L84.11,73.17V38.87a3.38,3.38,0,0,0-2-3.08L51,17.83a3.36,3.36,0,0,0-3.36,0l-31.11,18a3.38,3.38,0,0,0-2,3.08v34.3Z"/><path class="cls-1" d="M3.36,87.43,18,79,47.38,96a3.41,3.41,0,0,0,3.92,0L80.72,79l14.6,8.43L49.34,114Z"/><path class="cls-1" d="M68,51.11,47.92,68.83c-.23-.25-.47-.5-.68-.77l-7.47-9.15c-1.4-1.73-2.8-3.45-4.23-5.19l6.37-5,6.82,9.66L66.6,43.13a1.32,1.32,0,0,0-.08-.22c-.08-.13-.16-.25-.25-.37a10.11,10.11,0,0,0-8.45-4.32c-5.31,0-10.62,0-15.93,0a12.28,12.28,0,0,0-2,.15,10.33,10.33,0,0,0-8.76,10.2c.07,5.19,0,10.38,0,15.56A11,11,0,0,0,39.5,74.71a5.62,5.62,0,0,0,1.34.23c4,0,7.93,0,11.89,0,1.3,0,2.6.06,3.9,0a15.8,15.8,0,0,0,3.16-.24A10.77,10.77,0,0,0,68,64.17c0-4.13,0-8.26,0-12.38C68,51.6,68,51.41,68,51.11Z"/></g></g></svg>